<mxfile host="app.diagrams.net" agent="Mozilla/5.0 (Windows NT 10.0; Win64; x64) AppleWebKit/537.36 (KHTML, like Gecko) Chrome/131.0.0.0 Safari/537.36" version="26.0.3">
  <diagram name="Страница — 1" id="fKiMwYkTwrCaUxWNVYz1">
    <mxGraphModel dx="1909" dy="1274" grid="0" gridSize="10" guides="1" tooltips="1" connect="1" arrows="1" fold="1" page="0" pageScale="1" pageWidth="827" pageHeight="1169" math="0" shadow="0">
      <root>
        <mxCell id="0" />
        <mxCell id="1" parent="0" />
        <mxCell id="agrJ_kMiK4IMYKjx3Z2o-3" value="&lt;span style=&quot;font-size:12.0pt;font-family:&amp;quot;Times New Roman&amp;quot;,serif;&lt;br/&gt;mso-fareast-font-family:&amp;quot;Times New Roman&amp;quot;;mso-ansi-language:RU;mso-fareast-language:&lt;br/&gt;EN-US;mso-bidi-language:AR-SA&quot;&gt;Система доставки продуктов &quot;Самокат&quot;&lt;/span&gt;" style="shape=umlFrame;whiteSpace=wrap;html=1;pointerEvents=0;width=284;height=22;" vertex="1" parent="1">
          <mxGeometry x="-238" y="6" width="974" height="504" as="geometry" />
        </mxCell>
        <mxCell id="agrJ_kMiK4IMYKjx3Z2o-4" value="Клиент" style="shape=umlActor;verticalLabelPosition=bottom;verticalAlign=top;html=1;" vertex="1" parent="1">
          <mxGeometry x="396" y="-83" width="30" height="60" as="geometry" />
        </mxCell>
        <mxCell id="agrJ_kMiK4IMYKjx3Z2o-10" value="Банк" style="shape=umlActor;verticalLabelPosition=bottom;verticalAlign=top;html=1;" vertex="1" parent="1">
          <mxGeometry x="759" y="215" width="30" height="60" as="geometry" />
        </mxCell>
        <mxCell id="agrJ_kMiK4IMYKjx3Z2o-11" value="Оператор&lt;br&gt;склада" style="shape=umlActor;verticalLabelPosition=bottom;verticalAlign=top;html=1;" vertex="1" parent="1">
          <mxGeometry x="-298" y="256" width="30" height="60" as="geometry" />
        </mxCell>
        <mxCell id="agrJ_kMiK4IMYKjx3Z2o-54" value="Собирать корзину продуктов" style="ellipse;whiteSpace=wrap;html=1;" vertex="1" parent="1">
          <mxGeometry x="218" y="158" width="81" height="57" as="geometry" />
        </mxCell>
        <mxCell id="agrJ_kMiK4IMYKjx3Z2o-55" value="" style="endArrow=none;html=1;rounded=0;fontSize=12;startSize=8;endSize=8;curved=1;entryX=0;entryY=1;entryDx=0;entryDy=0;entryPerimeter=0;" edge="1" parent="1" source="agrJ_kMiK4IMYKjx3Z2o-57" target="agrJ_kMiK4IMYKjx3Z2o-4">
          <mxGeometry width="50" height="50" relative="1" as="geometry">
            <mxPoint x="301" y="285" as="sourcePoint" />
            <mxPoint x="351" y="235" as="targetPoint" />
          </mxGeometry>
        </mxCell>
        <mxCell id="agrJ_kMiK4IMYKjx3Z2o-56" value="&amp;lt;&amp;lt;include&amp;gt;&amp;gt;" style="endArrow=open;endSize=12;dashed=1;html=1;rounded=0;fontSize=12;curved=1;exitX=0;exitY=1;exitDx=0;exitDy=0;entryX=0.5;entryY=0;entryDx=0;entryDy=0;" edge="1" parent="1" source="agrJ_kMiK4IMYKjx3Z2o-57" target="agrJ_kMiK4IMYKjx3Z2o-54">
          <mxGeometry width="160" relative="1" as="geometry">
            <mxPoint x="246" y="260" as="sourcePoint" />
            <mxPoint x="406" y="260" as="targetPoint" />
          </mxGeometry>
        </mxCell>
        <mxCell id="agrJ_kMiK4IMYKjx3Z2o-57" value="Оформлять заказ" style="ellipse;whiteSpace=wrap;html=1;" vertex="1" parent="1">
          <mxGeometry x="297" y="44.5" width="81" height="57" as="geometry" />
        </mxCell>
        <mxCell id="agrJ_kMiK4IMYKjx3Z2o-58" value="Оплачивать заказ" style="ellipse;whiteSpace=wrap;html=1;" vertex="1" parent="1">
          <mxGeometry x="364" y="144" width="81" height="57" as="geometry" />
        </mxCell>
        <mxCell id="agrJ_kMiK4IMYKjx3Z2o-59" value="&amp;lt;&amp;lt;include&amp;gt;&amp;gt;" style="endArrow=open;endSize=12;dashed=1;html=1;rounded=0;fontSize=12;curved=1;exitX=0.5;exitY=0;exitDx=0;exitDy=0;" edge="1" parent="1" source="agrJ_kMiK4IMYKjx3Z2o-58" target="agrJ_kMiK4IMYKjx3Z2o-57">
          <mxGeometry x="-0.0644" width="160" relative="1" as="geometry">
            <mxPoint x="269" y="168" as="sourcePoint" />
            <mxPoint x="348" y="112" as="targetPoint" />
            <mxPoint as="offset" />
          </mxGeometry>
        </mxCell>
        <mxCell id="agrJ_kMiK4IMYKjx3Z2o-60" value="Использовать промокод" style="ellipse;whiteSpace=wrap;html=1;" vertex="1" parent="1">
          <mxGeometry x="364" y="264" width="81" height="57" as="geometry" />
        </mxCell>
        <mxCell id="agrJ_kMiK4IMYKjx3Z2o-61" value="&amp;lt;&amp;lt;extend&amp;gt;&amp;gt;" style="endArrow=open;endSize=12;dashed=1;html=1;rounded=0;fontSize=12;curved=1;entryX=0.5;entryY=1;entryDx=0;entryDy=0;exitX=0.5;exitY=0;exitDx=0;exitDy=0;" edge="1" parent="1" source="agrJ_kMiK4IMYKjx3Z2o-60" target="agrJ_kMiK4IMYKjx3Z2o-58">
          <mxGeometry width="160" relative="1" as="geometry">
            <mxPoint x="415" y="168" as="sourcePoint" />
            <mxPoint x="376" y="103" as="targetPoint" />
          </mxGeometry>
        </mxCell>
        <mxCell id="agrJ_kMiK4IMYKjx3Z2o-65" value="Собирать продукты по списку" style="ellipse;whiteSpace=wrap;html=1;" vertex="1" parent="1">
          <mxGeometry x="-218.5" y="350" width="81" height="57" as="geometry" />
        </mxCell>
        <mxCell id="agrJ_kMiK4IMYKjx3Z2o-67" value="Упаковывать продукты в пакеты" style="ellipse;whiteSpace=wrap;html=1;" vertex="1" parent="1">
          <mxGeometry x="-218.5" y="441" width="81" height="57" as="geometry" />
        </mxCell>
        <mxCell id="agrJ_kMiK4IMYKjx3Z2o-70" value="&amp;lt;&amp;lt;include&amp;gt;&amp;gt;" style="endArrow=open;endSize=12;dashed=1;html=1;rounded=0;fontSize=12;curved=1;exitX=0.5;exitY=1;exitDx=0;exitDy=0;entryX=0.5;entryY=0;entryDx=0;entryDy=0;" edge="1" parent="1" source="agrJ_kMiK4IMYKjx3Z2o-65" target="agrJ_kMiK4IMYKjx3Z2o-67">
          <mxGeometry width="160" relative="1" as="geometry">
            <mxPoint x="-396" y="317" as="sourcePoint" />
            <mxPoint x="-240" y="333" as="targetPoint" />
          </mxGeometry>
        </mxCell>
        <mxCell id="agrJ_kMiK4IMYKjx3Z2o-71" value="Проводить онлайн платеж" style="ellipse;whiteSpace=wrap;html=1;" vertex="1" parent="1">
          <mxGeometry x="614" y="205" width="74" height="59" as="geometry" />
        </mxCell>
        <mxCell id="agrJ_kMiK4IMYKjx3Z2o-72" value="" style="endArrow=none;html=1;rounded=0;fontSize=12;startSize=8;endSize=8;curved=1;entryX=0;entryY=0.3333333333333333;entryDx=0;entryDy=0;entryPerimeter=0;exitX=1;exitY=0.5;exitDx=0;exitDy=0;" edge="1" parent="1" source="agrJ_kMiK4IMYKjx3Z2o-71" target="agrJ_kMiK4IMYKjx3Z2o-10">
          <mxGeometry width="50" height="50" relative="1" as="geometry">
            <mxPoint x="469" y="231" as="sourcePoint" />
            <mxPoint x="519" y="181" as="targetPoint" />
          </mxGeometry>
        </mxCell>
        <mxCell id="agrJ_kMiK4IMYKjx3Z2o-74" value="Передавать пакеты с продуктами курьеру" style="ellipse;whiteSpace=wrap;html=1;" vertex="1" parent="1">
          <mxGeometry x="-224" y="239" width="92" height="77" as="geometry" />
        </mxCell>
        <mxCell id="agrJ_kMiK4IMYKjx3Z2o-75" value="&amp;lt;&amp;lt;include&amp;gt;&amp;gt;" style="endArrow=open;endSize=12;dashed=1;html=1;rounded=0;fontSize=12;curved=1;exitX=0.5;exitY=1;exitDx=0;exitDy=0;entryX=0.5;entryY=0;entryDx=0;entryDy=0;" edge="1" parent="1" source="agrJ_kMiK4IMYKjx3Z2o-74" target="agrJ_kMiK4IMYKjx3Z2o-65">
          <mxGeometry width="160" relative="1" as="geometry">
            <mxPoint x="-173" y="396" as="sourcePoint" />
            <mxPoint x="-173" y="432" as="targetPoint" />
          </mxGeometry>
        </mxCell>
        <mxCell id="agrJ_kMiK4IMYKjx3Z2o-76" value="" style="endArrow=none;html=1;rounded=0;fontSize=12;startSize=8;endSize=8;curved=1;entryX=1;entryY=0.3333333333333333;entryDx=0;entryDy=0;entryPerimeter=0;exitX=0;exitY=0.5;exitDx=0;exitDy=0;" edge="1" parent="1" source="agrJ_kMiK4IMYKjx3Z2o-74" target="agrJ_kMiK4IMYKjx3Z2o-11">
          <mxGeometry width="50" height="50" relative="1" as="geometry">
            <mxPoint x="285" y="293" as="sourcePoint" />
            <mxPoint x="335" y="243" as="targetPoint" />
          </mxGeometry>
        </mxCell>
        <mxCell id="agrJ_kMiK4IMYKjx3Z2o-77" value="Смотреть свою корзину" style="ellipse;whiteSpace=wrap;html=1;" vertex="1" parent="1">
          <mxGeometry x="191" y="44.5" width="81" height="57" as="geometry" />
        </mxCell>
        <mxCell id="agrJ_kMiK4IMYKjx3Z2o-78" value="&amp;lt;&amp;lt;extend&amp;gt;&amp;gt;" style="endArrow=open;endSize=12;dashed=1;html=1;rounded=0;fontSize=12;curved=1;entryX=0.5;entryY=1;entryDx=0;entryDy=0;exitX=0;exitY=0;exitDx=0;exitDy=0;" edge="1" parent="1" source="agrJ_kMiK4IMYKjx3Z2o-54" target="agrJ_kMiK4IMYKjx3Z2o-77">
          <mxGeometry x="-0.2181" y="-1" width="160" relative="1" as="geometry">
            <mxPoint x="414" y="271" as="sourcePoint" />
            <mxPoint x="414" y="211" as="targetPoint" />
            <mxPoint y="1" as="offset" />
          </mxGeometry>
        </mxCell>
        <mxCell id="agrJ_kMiK4IMYKjx3Z2o-80" value="" style="endArrow=none;html=1;rounded=0;fontSize=12;startSize=8;endSize=8;curved=1;exitX=1;exitY=0;exitDx=0;exitDy=0;entryX=0;entryY=1;entryDx=0;entryDy=0;entryPerimeter=0;" edge="1" parent="1" source="agrJ_kMiK4IMYKjx3Z2o-77" target="agrJ_kMiK4IMYKjx3Z2o-4">
          <mxGeometry width="50" height="50" relative="1" as="geometry">
            <mxPoint x="423" y="207" as="sourcePoint" />
            <mxPoint x="473" y="157" as="targetPoint" />
          </mxGeometry>
        </mxCell>
        <mxCell id="agrJ_kMiK4IMYKjx3Z2o-81" value="Оценивать заказ" style="ellipse;whiteSpace=wrap;html=1;" vertex="1" parent="1">
          <mxGeometry x="494" y="28" width="81" height="57" as="geometry" />
        </mxCell>
        <mxCell id="agrJ_kMiK4IMYKjx3Z2o-85" value="&amp;lt;&amp;lt;extend&amp;gt;&amp;gt;" style="endArrow=open;endSize=12;dashed=1;html=1;rounded=0;fontSize=12;curved=1;exitX=0.088;exitY=0.292;exitDx=0;exitDy=0;entryX=1;entryY=0;entryDx=0;entryDy=0;exitPerimeter=0;" edge="1" parent="1" source="agrJ_kMiK4IMYKjx3Z2o-84" target="agrJ_kMiK4IMYKjx3Z2o-81">
          <mxGeometry x="-0.0093" width="160" relative="1" as="geometry">
            <mxPoint x="414" y="271" as="sourcePoint" />
            <mxPoint x="414" y="211" as="targetPoint" />
            <mxPoint as="offset" />
          </mxGeometry>
        </mxCell>
        <mxCell id="agrJ_kMiK4IMYKjx3Z2o-86" value="" style="endArrow=none;html=1;rounded=0;fontSize=12;startSize=8;endSize=8;curved=1;entryX=0.5;entryY=0;entryDx=0;entryDy=0;exitX=1;exitY=1;exitDx=0;exitDy=0;exitPerimeter=0;" edge="1" parent="1" source="agrJ_kMiK4IMYKjx3Z2o-4" target="agrJ_kMiK4IMYKjx3Z2o-81">
          <mxGeometry width="50" height="50" relative="1" as="geometry">
            <mxPoint x="423" y="207" as="sourcePoint" />
            <mxPoint x="473" y="157" as="targetPoint" />
          </mxGeometry>
        </mxCell>
        <mxCell id="agrJ_kMiK4IMYKjx3Z2o-87" value="" style="endArrow=none;html=1;rounded=0;fontSize=12;startSize=8;endSize=8;curved=1;entryX=1;entryY=0;entryDx=0;entryDy=0;exitX=0.5;exitY=1;exitDx=0;exitDy=0;" edge="1" parent="1" source="agrJ_kMiK4IMYKjx3Z2o-84" target="agrJ_kMiK4IMYKjx3Z2o-71">
          <mxGeometry width="50" height="50" relative="1" as="geometry">
            <mxPoint x="706" y="95" as="sourcePoint" />
            <mxPoint x="756" y="95" as="targetPoint" />
          </mxGeometry>
        </mxCell>
        <mxCell id="agrJ_kMiK4IMYKjx3Z2o-88" value="" style="endArrow=none;html=1;rounded=0;fontSize=12;startSize=8;endSize=8;curved=1;entryX=0;entryY=0.5;entryDx=0;entryDy=0;exitX=1;exitY=0.5;exitDx=0;exitDy=0;" edge="1" parent="1" source="agrJ_kMiK4IMYKjx3Z2o-58" target="agrJ_kMiK4IMYKjx3Z2o-71">
          <mxGeometry width="50" height="50" relative="1" as="geometry">
            <mxPoint x="553" y="162" as="sourcePoint" />
            <mxPoint x="643" y="115" as="targetPoint" />
          </mxGeometry>
        </mxCell>
        <mxCell id="agrJ_kMiK4IMYKjx3Z2o-84" value="Оставлять чаевые курьеру" style="ellipse;whiteSpace=wrap;html=1;" vertex="1" parent="1">
          <mxGeometry x="644" y="87" width="81" height="57" as="geometry" />
        </mxCell>
        <mxCell id="agrJ_kMiK4IMYKjx3Z2o-92" value="Обращаться в поддержку" style="ellipse;whiteSpace=wrap;html=1;" vertex="1" parent="1">
          <mxGeometry x="85" y="44.5" width="81" height="57" as="geometry" />
        </mxCell>
        <mxCell id="agrJ_kMiK4IMYKjx3Z2o-93" value="Обращаться по телефону" style="ellipse;whiteSpace=wrap;html=1;" vertex="1" parent="1">
          <mxGeometry x="-25" y="47" width="81" height="57" as="geometry" />
        </mxCell>
        <mxCell id="agrJ_kMiK4IMYKjx3Z2o-94" value="Обращаться через Telegram" style="ellipse;whiteSpace=wrap;html=1;" vertex="1" parent="1">
          <mxGeometry x="-25" y="128" width="81" height="57" as="geometry" />
        </mxCell>
        <mxCell id="agrJ_kMiK4IMYKjx3Z2o-95" value="" style="endArrow=block;endSize=16;endFill=0;html=1;rounded=0;fontSize=12;curved=1;exitX=1;exitY=0.5;exitDx=0;exitDy=0;entryX=0;entryY=0.5;entryDx=0;entryDy=0;" edge="1" parent="1" source="agrJ_kMiK4IMYKjx3Z2o-93" target="agrJ_kMiK4IMYKjx3Z2o-92">
          <mxGeometry width="160" relative="1" as="geometry">
            <mxPoint x="288" y="259" as="sourcePoint" />
            <mxPoint x="448" y="259" as="targetPoint" />
          </mxGeometry>
        </mxCell>
        <mxCell id="agrJ_kMiK4IMYKjx3Z2o-96" value="" style="endArrow=block;endSize=16;endFill=0;html=1;rounded=0;fontSize=12;curved=1;exitX=1;exitY=0.5;exitDx=0;exitDy=0;entryX=0.66;entryY=0.979;entryDx=0;entryDy=0;entryPerimeter=0;" edge="1" parent="1" source="agrJ_kMiK4IMYKjx3Z2o-94" target="agrJ_kMiK4IMYKjx3Z2o-92">
          <mxGeometry width="160" relative="1" as="geometry">
            <mxPoint x="50" y="132" as="sourcePoint" />
            <mxPoint x="107" y="103" as="targetPoint" />
          </mxGeometry>
        </mxCell>
        <mxCell id="agrJ_kMiK4IMYKjx3Z2o-97" value="" style="endArrow=none;html=1;rounded=0;fontSize=12;startSize=8;endSize=8;curved=1;entryX=0;entryY=1;entryDx=0;entryDy=0;exitX=0.5;exitY=0;exitDx=0;exitDy=0;entryPerimeter=0;" edge="1" parent="1" source="agrJ_kMiK4IMYKjx3Z2o-92" target="agrJ_kMiK4IMYKjx3Z2o-4">
          <mxGeometry width="50" height="50" relative="1" as="geometry">
            <mxPoint x="436" y="-13" as="sourcePoint" />
            <mxPoint x="456" y="55" as="targetPoint" />
          </mxGeometry>
        </mxCell>
        <mxCell id="agrJ_kMiK4IMYKjx3Z2o-98" value="&amp;lt;&amp;lt;include&amp;gt;&amp;gt;" style="endArrow=open;endSize=12;dashed=1;html=1;rounded=0;fontSize=12;curved=1;entryX=1;entryY=0;entryDx=0;entryDy=0;exitX=0;exitY=0;exitDx=0;exitDy=0;" edge="1" parent="1" source="agrJ_kMiK4IMYKjx3Z2o-99" target="agrJ_kMiK4IMYKjx3Z2o-58">
          <mxGeometry width="160" relative="1" as="geometry">
            <mxPoint x="415" y="271" as="sourcePoint" />
            <mxPoint x="415" y="211" as="targetPoint" />
          </mxGeometry>
        </mxCell>
        <mxCell id="agrJ_kMiK4IMYKjx3Z2o-99" value="Получать заказ" style="ellipse;whiteSpace=wrap;html=1;" vertex="1" parent="1">
          <mxGeometry x="563" y="132" width="81" height="57" as="geometry" />
        </mxCell>
        <mxCell id="agrJ_kMiK4IMYKjx3Z2o-100" value="&amp;lt;&amp;lt;extend&amp;gt;&amp;gt;" style="endArrow=open;endSize=12;dashed=1;html=1;rounded=0;fontSize=12;curved=1;entryX=0.617;entryY=1;entryDx=0;entryDy=0;exitX=0;exitY=0;exitDx=0;exitDy=0;entryPerimeter=0;" edge="1" parent="1" source="agrJ_kMiK4IMYKjx3Z2o-99" target="agrJ_kMiK4IMYKjx3Z2o-81">
          <mxGeometry width="160" relative="1" as="geometry">
            <mxPoint x="499" y="140" as="sourcePoint" />
            <mxPoint x="443" y="162" as="targetPoint" />
          </mxGeometry>
        </mxCell>
        <mxCell id="agrJ_kMiK4IMYKjx3Z2o-101" value="Сотрудник&lt;br&gt;поддержки" style="shape=umlActor;verticalLabelPosition=bottom;verticalAlign=top;html=1;" vertex="1" parent="1">
          <mxGeometry x="555.5" y="537" width="30" height="60" as="geometry" />
        </mxCell>
        <mxCell id="agrJ_kMiK4IMYKjx3Z2o-102" value="Формировать заявку на изменение контента" style="ellipse;whiteSpace=wrap;html=1;" vertex="1" parent="1">
          <mxGeometry x="408" y="432" width="106" height="66" as="geometry" />
        </mxCell>
        <mxCell id="agrJ_kMiK4IMYKjx3Z2o-104" value="Оформлять заявку на возврат средств" style="ellipse;whiteSpace=wrap;html=1;" vertex="1" parent="1">
          <mxGeometry x="624" y="428" width="103" height="70" as="geometry" />
        </mxCell>
        <mxCell id="agrJ_kMiK4IMYKjx3Z2o-105" value="" style="endArrow=none;html=1;rounded=0;fontSize=12;startSize=8;endSize=8;curved=1;exitX=0.5;exitY=0;exitDx=0;exitDy=0;entryX=1;entryY=1;entryDx=0;entryDy=0;" edge="1" parent="1" source="agrJ_kMiK4IMYKjx3Z2o-104" target="agrJ_kMiK4IMYKjx3Z2o-71">
          <mxGeometry width="50" height="50" relative="1" as="geometry">
            <mxPoint x="355" y="348" as="sourcePoint" />
            <mxPoint x="405" y="298" as="targetPoint" />
          </mxGeometry>
        </mxCell>
        <mxCell id="agrJ_kMiK4IMYKjx3Z2o-106" value="Отвечать&lt;br&gt;на обращение" style="ellipse;whiteSpace=wrap;html=1;" vertex="1" parent="1">
          <mxGeometry x="530" y="441" width="81" height="57" as="geometry" />
        </mxCell>
        <mxCell id="agrJ_kMiK4IMYKjx3Z2o-108" value="Оценивать работу сотрудника поддержки" style="ellipse;whiteSpace=wrap;html=1;" vertex="1" parent="1">
          <mxGeometry x="89" y="149" width="105" height="79" as="geometry" />
        </mxCell>
        <mxCell id="agrJ_kMiK4IMYKjx3Z2o-109" value="&amp;lt;&amp;lt;extend&amp;gt;&amp;gt;" style="endArrow=open;endSize=12;dashed=1;html=1;rounded=0;fontSize=12;curved=1;entryX=1;entryY=1;entryDx=0;entryDy=0;exitX=0;exitY=0;exitDx=0;exitDy=0;" edge="1" parent="1" source="agrJ_kMiK4IMYKjx3Z2o-108" target="agrJ_kMiK4IMYKjx3Z2o-93">
          <mxGeometry x="0.0141" y="3" width="160" relative="1" as="geometry">
            <mxPoint x="240" y="176" as="sourcePoint" />
            <mxPoint x="241" y="111" as="targetPoint" />
            <mxPoint x="-1" as="offset" />
          </mxGeometry>
        </mxCell>
        <mxCell id="agrJ_kMiK4IMYKjx3Z2o-110" value="&amp;lt;&amp;lt;extend&amp;gt;&amp;gt;" style="endArrow=open;endSize=12;dashed=1;html=1;rounded=0;fontSize=12;curved=1;entryX=0.5;entryY=1;entryDx=0;entryDy=0;exitX=0;exitY=1;exitDx=0;exitDy=0;" edge="1" parent="1" source="agrJ_kMiK4IMYKjx3Z2o-108" target="agrJ_kMiK4IMYKjx3Z2o-94">
          <mxGeometry x="-0.0847" y="10" width="160" relative="1" as="geometry">
            <mxPoint x="45" y="234" as="sourcePoint" />
            <mxPoint x="50" y="189" as="targetPoint" />
            <mxPoint y="1" as="offset" />
          </mxGeometry>
        </mxCell>
        <mxCell id="agrJ_kMiK4IMYKjx3Z2o-112" value="Передать заявку администратору системы" style="ellipse;whiteSpace=wrap;html=1;" vertex="1" parent="1">
          <mxGeometry x="272" y="336" width="106" height="66" as="geometry" />
        </mxCell>
        <mxCell id="agrJ_kMiK4IMYKjx3Z2o-113" value="&amp;lt;&amp;lt;include&amp;gt;&amp;gt;" style="endArrow=open;endSize=12;dashed=1;html=1;rounded=0;fontSize=12;curved=1;exitX=1;exitY=0.5;exitDx=0;exitDy=0;entryX=0;entryY=0.5;entryDx=0;entryDy=0;" edge="1" parent="1" source="agrJ_kMiK4IMYKjx3Z2o-112" target="agrJ_kMiK4IMYKjx3Z2o-102">
          <mxGeometry width="160" relative="1" as="geometry">
            <mxPoint x="319" y="103" as="sourcePoint" />
            <mxPoint x="269" y="168" as="targetPoint" />
          </mxGeometry>
        </mxCell>
        <mxCell id="agrJ_kMiK4IMYKjx3Z2o-114" value="Отвечать через Telegram" style="ellipse;whiteSpace=wrap;html=1;" vertex="1" parent="1">
          <mxGeometry x="582" y="325" width="81" height="57" as="geometry" />
        </mxCell>
        <mxCell id="agrJ_kMiK4IMYKjx3Z2o-115" value="Отвечать по телефону" style="ellipse;whiteSpace=wrap;html=1;" vertex="1" parent="1">
          <mxGeometry x="463" y="325" width="81" height="57" as="geometry" />
        </mxCell>
        <mxCell id="agrJ_kMiK4IMYKjx3Z2o-116" value="" style="endArrow=block;endSize=16;endFill=0;html=1;rounded=0;fontSize=12;curved=1;exitX=0.5;exitY=1;exitDx=0;exitDy=0;entryX=0;entryY=0;entryDx=0;entryDy=0;" edge="1" parent="1" source="agrJ_kMiK4IMYKjx3Z2o-115" target="agrJ_kMiK4IMYKjx3Z2o-106">
          <mxGeometry width="160" relative="1" as="geometry">
            <mxPoint x="50" y="132" as="sourcePoint" />
            <mxPoint x="107" y="103" as="targetPoint" />
          </mxGeometry>
        </mxCell>
        <mxCell id="agrJ_kMiK4IMYKjx3Z2o-117" value="" style="endArrow=block;endSize=16;endFill=0;html=1;rounded=0;fontSize=12;curved=1;exitX=0.5;exitY=1;exitDx=0;exitDy=0;entryX=1;entryY=0;entryDx=0;entryDy=0;" edge="1" parent="1" source="agrJ_kMiK4IMYKjx3Z2o-114" target="agrJ_kMiK4IMYKjx3Z2o-106">
          <mxGeometry width="160" relative="1" as="geometry">
            <mxPoint x="513" y="392" as="sourcePoint" />
            <mxPoint x="552" y="459" as="targetPoint" />
          </mxGeometry>
        </mxCell>
        <mxCell id="agrJ_kMiK4IMYKjx3Z2o-118" value="" style="endArrow=none;html=1;rounded=0;fontSize=12;startSize=8;endSize=8;curved=1;entryX=0;entryY=0.3333333333333333;entryDx=0;entryDy=0;entryPerimeter=0;exitX=0.5;exitY=1;exitDx=0;exitDy=0;" edge="1" parent="1" source="agrJ_kMiK4IMYKjx3Z2o-102" target="agrJ_kMiK4IMYKjx3Z2o-101">
          <mxGeometry width="50" height="50" relative="1" as="geometry">
            <mxPoint x="413" y="371" as="sourcePoint" />
            <mxPoint x="463" y="321" as="targetPoint" />
          </mxGeometry>
        </mxCell>
        <mxCell id="agrJ_kMiK4IMYKjx3Z2o-119" value="" style="endArrow=none;html=1;rounded=0;fontSize=12;startSize=8;endSize=8;curved=1;entryX=0.5;entryY=0;entryDx=0;entryDy=0;entryPerimeter=0;exitX=0.5;exitY=1;exitDx=0;exitDy=0;" edge="1" parent="1" source="agrJ_kMiK4IMYKjx3Z2o-106" target="agrJ_kMiK4IMYKjx3Z2o-101">
          <mxGeometry width="50" height="50" relative="1" as="geometry">
            <mxPoint x="413" y="371" as="sourcePoint" />
            <mxPoint x="463" y="321" as="targetPoint" />
          </mxGeometry>
        </mxCell>
        <mxCell id="agrJ_kMiK4IMYKjx3Z2o-120" value="" style="endArrow=none;html=1;rounded=0;fontSize=12;startSize=8;endSize=8;curved=1;entryX=0.5;entryY=1;entryDx=0;entryDy=0;exitX=1;exitY=0.3333333333333333;exitDx=0;exitDy=0;exitPerimeter=0;" edge="1" parent="1" source="agrJ_kMiK4IMYKjx3Z2o-101" target="agrJ_kMiK4IMYKjx3Z2o-104">
          <mxGeometry width="50" height="50" relative="1" as="geometry">
            <mxPoint x="594" y="552" as="sourcePoint" />
            <mxPoint x="463" y="321" as="targetPoint" />
          </mxGeometry>
        </mxCell>
        <mxCell id="agrJ_kMiK4IMYKjx3Z2o-121" value="Администратор&lt;br&gt;системы" style="shape=umlActor;verticalLabelPosition=bottom;verticalAlign=top;html=1;" vertex="1" parent="1">
          <mxGeometry x="50" y="537" width="30" height="60" as="geometry" />
        </mxCell>
        <mxCell id="agrJ_kMiK4IMYKjx3Z2o-122" value="Отвечать на заявку сотрудника поддержки" style="ellipse;whiteSpace=wrap;html=1;" vertex="1" parent="1">
          <mxGeometry x="180" y="413" width="100.5" height="66.5" as="geometry" />
        </mxCell>
        <mxCell id="agrJ_kMiK4IMYKjx3Z2o-123" value="Редактировать товары" style="ellipse;whiteSpace=wrap;html=1;" vertex="1" parent="1">
          <mxGeometry x="150" y="315" width="92.25" height="67.5" as="geometry" />
        </mxCell>
        <mxCell id="agrJ_kMiK4IMYKjx3Z2o-124" value="" style="endArrow=none;html=1;rounded=0;fontSize=12;startSize=8;endSize=8;curved=1;exitX=0.5;exitY=0;exitDx=0;exitDy=0;exitPerimeter=0;entryX=0.5;entryY=1;entryDx=0;entryDy=0;" edge="1" parent="1" source="agrJ_kMiK4IMYKjx3Z2o-121" target="agrJ_kMiK4IMYKjx3Z2o-122">
          <mxGeometry width="50" height="50" relative="1" as="geometry">
            <mxPoint x="157" y="386" as="sourcePoint" />
            <mxPoint x="207" y="336" as="targetPoint" />
          </mxGeometry>
        </mxCell>
        <mxCell id="agrJ_kMiK4IMYKjx3Z2o-125" value="&amp;lt;&amp;lt;include&amp;gt;&amp;gt;" style="endArrow=open;endSize=12;dashed=1;html=1;rounded=0;fontSize=12;curved=1;exitX=0;exitY=1;exitDx=0;exitDy=0;entryX=0.5;entryY=0;entryDx=0;entryDy=0;" edge="1" parent="1" source="agrJ_kMiK4IMYKjx3Z2o-123" target="agrJ_kMiK4IMYKjx3Z2o-122">
          <mxGeometry width="160" relative="1" as="geometry">
            <mxPoint x="360" y="90" as="sourcePoint" />
            <mxPoint x="309" y="155" as="targetPoint" />
          </mxGeometry>
        </mxCell>
        <mxCell id="agrJ_kMiK4IMYKjx3Z2o-126" value="Изменить" style="ellipse;whiteSpace=wrap;html=1;" vertex="1" parent="1">
          <mxGeometry x="-5" y="305" width="63" height="43" as="geometry" />
        </mxCell>
        <mxCell id="agrJ_kMiK4IMYKjx3Z2o-127" value="Добавить" style="ellipse;whiteSpace=wrap;html=1;" vertex="1" parent="1">
          <mxGeometry x="16" y="358" width="63" height="43" as="geometry" />
        </mxCell>
        <mxCell id="agrJ_kMiK4IMYKjx3Z2o-128" value="Удалить" style="ellipse;whiteSpace=wrap;html=1;" vertex="1" parent="1">
          <mxGeometry x="63" y="401" width="63" height="43" as="geometry" />
        </mxCell>
        <mxCell id="agrJ_kMiK4IMYKjx3Z2o-129" value="" style="endArrow=block;endSize=16;endFill=0;html=1;rounded=0;fontSize=12;curved=1;exitX=1;exitY=0.5;exitDx=0;exitDy=0;entryX=0;entryY=0;entryDx=0;entryDy=0;" edge="1" parent="1" source="agrJ_kMiK4IMYKjx3Z2o-126" target="agrJ_kMiK4IMYKjx3Z2o-123">
          <mxGeometry width="160" relative="1" as="geometry">
            <mxPoint x="91" y="119" as="sourcePoint" />
            <mxPoint x="148" y="90" as="targetPoint" />
          </mxGeometry>
        </mxCell>
        <mxCell id="agrJ_kMiK4IMYKjx3Z2o-130" value="" style="endArrow=block;endSize=16;endFill=0;html=1;rounded=0;fontSize=12;curved=1;exitX=1;exitY=0.5;exitDx=0;exitDy=0;entryX=0;entryY=0.5;entryDx=0;entryDy=0;" edge="1" parent="1" source="agrJ_kMiK4IMYKjx3Z2o-127" target="agrJ_kMiK4IMYKjx3Z2o-123">
          <mxGeometry width="160" relative="1" as="geometry">
            <mxPoint x="66" y="353" as="sourcePoint" />
            <mxPoint x="160" y="342" as="targetPoint" />
          </mxGeometry>
        </mxCell>
        <mxCell id="agrJ_kMiK4IMYKjx3Z2o-131" value="" style="endArrow=block;endSize=16;endFill=0;html=1;rounded=0;fontSize=12;curved=1;exitX=1;exitY=0.5;exitDx=0;exitDy=0;entryX=0;entryY=1;entryDx=0;entryDy=0;" edge="1" parent="1" source="agrJ_kMiK4IMYKjx3Z2o-128" target="agrJ_kMiK4IMYKjx3Z2o-123">
          <mxGeometry width="160" relative="1" as="geometry">
            <mxPoint x="39" y="397" as="sourcePoint" />
            <mxPoint x="154" y="365" as="targetPoint" />
          </mxGeometry>
        </mxCell>
        <mxCell id="agrJ_kMiK4IMYKjx3Z2o-132" value="Формировать обращение разработчикам" style="ellipse;whiteSpace=wrap;html=1;" vertex="1" parent="1">
          <mxGeometry x="-63" y="432" width="92.25" height="67.5" as="geometry" />
        </mxCell>
        <mxCell id="agrJ_kMiK4IMYKjx3Z2o-133" value="&amp;lt;&amp;lt;extend&amp;gt;&amp;gt;" style="endArrow=open;endSize=12;dashed=1;html=1;rounded=0;fontSize=12;curved=1;entryX=0;entryY=0.5;entryDx=0;entryDy=0;exitX=1;exitY=0.5;exitDx=0;exitDy=0;" edge="1" parent="1" source="agrJ_kMiK4IMYKjx3Z2o-132" target="agrJ_kMiK4IMYKjx3Z2o-122">
          <mxGeometry width="160" relative="1" as="geometry">
            <mxPoint x="28.250000000005002" y="452.75" as="sourcePoint" />
            <mxPoint x="456" y="198" as="targetPoint" />
          </mxGeometry>
        </mxCell>
        <mxCell id="agrJ_kMiK4IMYKjx3Z2o-134" value="Курьер" style="shape=umlActor;verticalLabelPosition=bottom;verticalAlign=top;html=1;" vertex="1" parent="1">
          <mxGeometry x="-307" y="57" width="30" height="60" as="geometry" />
        </mxCell>
        <mxCell id="agrJ_kMiK4IMYKjx3Z2o-136" value="Обращаться в поддержку" style="ellipse;whiteSpace=wrap;html=1;" vertex="1" parent="1">
          <mxGeometry x="-218.5" y="47" width="81" height="57" as="geometry" />
        </mxCell>
        <mxCell id="agrJ_kMiK4IMYKjx3Z2o-137" value="" style="endArrow=block;endSize=16;endFill=0;html=1;rounded=0;fontSize=12;curved=1;" edge="1" parent="1" source="agrJ_kMiK4IMYKjx3Z2o-93" target="agrJ_kMiK4IMYKjx3Z2o-136">
          <mxGeometry width="160" relative="1" as="geometry">
            <mxPoint x="66" y="85" as="sourcePoint" />
            <mxPoint x="95" y="83" as="targetPoint" />
          </mxGeometry>
        </mxCell>
        <mxCell id="agrJ_kMiK4IMYKjx3Z2o-139" value="" style="endArrow=block;endSize=16;endFill=0;html=1;rounded=0;fontSize=12;curved=1;exitX=0;exitY=0;exitDx=0;exitDy=0;entryX=1;entryY=1;entryDx=0;entryDy=0;" edge="1" parent="1" source="agrJ_kMiK4IMYKjx3Z2o-94" target="agrJ_kMiK4IMYKjx3Z2o-136">
          <mxGeometry width="160" relative="1" as="geometry">
            <mxPoint x="66" y="166" as="sourcePoint" />
            <mxPoint x="148" y="110" as="targetPoint" />
          </mxGeometry>
        </mxCell>
        <mxCell id="agrJ_kMiK4IMYKjx3Z2o-140" value="Везти заказ" style="ellipse;whiteSpace=wrap;html=1;" vertex="1" parent="1">
          <mxGeometry x="-218.5" y="111" width="81" height="57" as="geometry" />
        </mxCell>
        <mxCell id="agrJ_kMiK4IMYKjx3Z2o-141" value="Получать заказ от оператора склада" style="ellipse;whiteSpace=wrap;html=1;" vertex="1" parent="1">
          <mxGeometry x="-47" y="219" width="107" height="78" as="geometry" />
        </mxCell>
        <mxCell id="agrJ_kMiK4IMYKjx3Z2o-142" value="&amp;lt;&amp;lt;include&amp;gt;&amp;gt;" style="endArrow=open;endSize=12;dashed=1;html=1;rounded=0;fontSize=12;curved=1;exitX=1;exitY=0.5;exitDx=0;exitDy=0;entryX=0.5;entryY=0;entryDx=0;entryDy=0;" edge="1" parent="1" source="agrJ_kMiK4IMYKjx3Z2o-140" target="agrJ_kMiK4IMYKjx3Z2o-141">
          <mxGeometry width="160" relative="1" as="geometry">
            <mxPoint x="-168" y="326" as="sourcePoint" />
            <mxPoint x="-168" y="360" as="targetPoint" />
          </mxGeometry>
        </mxCell>
        <mxCell id="agrJ_kMiK4IMYKjx3Z2o-145" value="" style="endArrow=none;html=1;rounded=0;fontSize=12;startSize=8;endSize=8;curved=1;entryX=1;entryY=0;entryDx=0;entryDy=0;" edge="1" parent="1" source="agrJ_kMiK4IMYKjx3Z2o-141" target="agrJ_kMiK4IMYKjx3Z2o-74">
          <mxGeometry width="50" height="50" relative="1" as="geometry">
            <mxPoint x="357" y="287" as="sourcePoint" />
            <mxPoint x="407" y="237" as="targetPoint" />
          </mxGeometry>
        </mxCell>
        <mxCell id="agrJ_kMiK4IMYKjx3Z2o-146" value="Помечать доставленный заказ" style="ellipse;whiteSpace=wrap;html=1;" vertex="1" parent="1">
          <mxGeometry x="-166" y="182" width="81" height="57" as="geometry" />
        </mxCell>
        <mxCell id="agrJ_kMiK4IMYKjx3Z2o-147" value="" style="endArrow=none;html=1;rounded=0;fontSize=12;startSize=8;endSize=8;curved=1;exitX=1;exitY=0.3333333333333333;exitDx=0;exitDy=0;exitPerimeter=0;entryX=0;entryY=0.5;entryDx=0;entryDy=0;" edge="1" parent="1" source="agrJ_kMiK4IMYKjx3Z2o-134" target="agrJ_kMiK4IMYKjx3Z2o-136">
          <mxGeometry width="50" height="50" relative="1" as="geometry">
            <mxPoint x="357" y="287" as="sourcePoint" />
            <mxPoint x="407" y="237" as="targetPoint" />
          </mxGeometry>
        </mxCell>
        <mxCell id="agrJ_kMiK4IMYKjx3Z2o-148" value="" style="endArrow=none;html=1;rounded=0;fontSize=12;startSize=8;endSize=8;curved=1;exitX=1;exitY=0.3333333333333333;exitDx=0;exitDy=0;exitPerimeter=0;entryX=0;entryY=0.5;entryDx=0;entryDy=0;" edge="1" parent="1" source="agrJ_kMiK4IMYKjx3Z2o-134" target="agrJ_kMiK4IMYKjx3Z2o-140">
          <mxGeometry width="50" height="50" relative="1" as="geometry">
            <mxPoint x="-267" y="87" as="sourcePoint" />
            <mxPoint x="-209" y="85" as="targetPoint" />
          </mxGeometry>
        </mxCell>
        <mxCell id="agrJ_kMiK4IMYKjx3Z2o-150" value="Отслеживать заказ" style="ellipse;whiteSpace=wrap;html=1;" vertex="1" parent="1">
          <mxGeometry x="402" y="39" width="81" height="57" as="geometry" />
        </mxCell>
        <mxCell id="agrJ_kMiK4IMYKjx3Z2o-151" value="" style="endArrow=none;html=1;rounded=0;fontSize=12;startSize=8;endSize=8;curved=1;entryX=0.5;entryY=0;entryDx=0;entryDy=0;exitX=1;exitY=1;exitDx=0;exitDy=0;exitPerimeter=0;" edge="1" parent="1" source="agrJ_kMiK4IMYKjx3Z2o-4" target="agrJ_kMiK4IMYKjx3Z2o-150">
          <mxGeometry width="50" height="50" relative="1" as="geometry">
            <mxPoint x="436" y="-13" as="sourcePoint" />
            <mxPoint x="545" y="38" as="targetPoint" />
          </mxGeometry>
        </mxCell>
        <mxCell id="agrJ_kMiK4IMYKjx3Z2o-152" value="&amp;lt;&amp;lt;include&amp;gt;&amp;gt;" style="endArrow=open;endSize=12;dashed=1;html=1;rounded=0;fontSize=12;curved=1;exitX=0.5;exitY=0;exitDx=0;exitDy=0;entryX=0.5;entryY=1;entryDx=0;entryDy=0;" edge="1" parent="1" source="agrJ_kMiK4IMYKjx3Z2o-58" target="agrJ_kMiK4IMYKjx3Z2o-150">
          <mxGeometry x="-0.0644" width="160" relative="1" as="geometry">
            <mxPoint x="415" y="154" as="sourcePoint" />
            <mxPoint x="370" y="107" as="targetPoint" />
            <mxPoint as="offset" />
          </mxGeometry>
        </mxCell>
        <mxCell id="agrJ_kMiK4IMYKjx3Z2o-153" value="&amp;lt;&amp;lt;include&amp;gt;&amp;gt;" style="endArrow=open;endSize=12;dashed=1;html=1;rounded=0;fontSize=12;curved=1;exitX=0;exitY=0;exitDx=0;exitDy=0;entryX=0.5;entryY=1;entryDx=0;entryDy=0;" edge="1" parent="1" source="agrJ_kMiK4IMYKjx3Z2o-146" target="agrJ_kMiK4IMYKjx3Z2o-140">
          <mxGeometry width="160" relative="1" as="geometry">
            <mxPoint x="-127" y="150" as="sourcePoint" />
            <mxPoint x="17" y="229" as="targetPoint" />
          </mxGeometry>
        </mxCell>
        <mxCell id="agrJ_kMiK4IMYKjx3Z2o-180" style="edgeStyle=none;curved=1;rounded=0;orthogonalLoop=1;jettySize=auto;html=1;exitX=0.5;exitY=1;exitDx=0;exitDy=0;fontSize=12;startSize=8;endSize=8;" edge="1" parent="1" source="agrJ_kMiK4IMYKjx3Z2o-172" target="agrJ_kMiK4IMYKjx3Z2o-173">
          <mxGeometry relative="1" as="geometry" />
        </mxCell>
        <mxCell id="agrJ_kMiK4IMYKjx3Z2o-172" value="" style="ellipse;fillColor=strokeColor;html=1;" vertex="1" parent="1">
          <mxGeometry x="234" y="762" width="30" height="30" as="geometry" />
        </mxCell>
        <mxCell id="agrJ_kMiK4IMYKjx3Z2o-182" style="edgeStyle=none;curved=1;rounded=0;orthogonalLoop=1;jettySize=auto;html=1;exitX=0.5;exitY=1;exitDx=0;exitDy=0;entryX=0.5;entryY=0;entryDx=0;entryDy=0;fontSize=12;startSize=8;endSize=8;" edge="1" parent="1" source="agrJ_kMiK4IMYKjx3Z2o-173" target="agrJ_kMiK4IMYKjx3Z2o-177">
          <mxGeometry relative="1" as="geometry" />
        </mxCell>
        <mxCell id="agrJ_kMiK4IMYKjx3Z2o-205" style="edgeStyle=none;curved=1;rounded=0;orthogonalLoop=1;jettySize=auto;html=1;exitX=1;exitY=0.5;exitDx=0;exitDy=0;entryX=1;entryY=0;entryDx=0;entryDy=0;fontSize=12;startSize=8;endSize=8;" edge="1" parent="1" source="agrJ_kMiK4IMYKjx3Z2o-173" target="agrJ_kMiK4IMYKjx3Z2o-178">
          <mxGeometry relative="1" as="geometry">
            <Array as="points">
              <mxPoint x="756" y="815" />
            </Array>
          </mxGeometry>
        </mxCell>
        <mxCell id="agrJ_kMiK4IMYKjx3Z2o-173" value="Создан" style="html=1;align=center;verticalAlign=top;rounded=1;absoluteArcSize=1;arcSize=10;dashed=0;whiteSpace=wrap;" vertex="1" parent="1">
          <mxGeometry x="221" y="844" width="56" height="30" as="geometry" />
        </mxCell>
        <mxCell id="agrJ_kMiK4IMYKjx3Z2o-174" value="Отменять заказ" style="ellipse;whiteSpace=wrap;html=1;" vertex="1" parent="1">
          <mxGeometry x="640" y="20" width="81" height="57" as="geometry" />
        </mxCell>
        <mxCell id="agrJ_kMiK4IMYKjx3Z2o-175" value="" style="endArrow=none;html=1;rounded=0;fontSize=12;startSize=8;endSize=8;curved=1;entryX=0.5;entryY=0;entryDx=0;entryDy=0;exitX=1;exitY=1;exitDx=0;exitDy=0;exitPerimeter=0;" edge="1" parent="1" source="agrJ_kMiK4IMYKjx3Z2o-4" target="agrJ_kMiK4IMYKjx3Z2o-174">
          <mxGeometry width="50" height="50" relative="1" as="geometry">
            <mxPoint x="436" y="-13" as="sourcePoint" />
            <mxPoint x="545" y="38" as="targetPoint" />
          </mxGeometry>
        </mxCell>
        <mxCell id="agrJ_kMiK4IMYKjx3Z2o-185" style="edgeStyle=none;curved=1;rounded=0;orthogonalLoop=1;jettySize=auto;html=1;exitX=1;exitY=0.5;exitDx=0;exitDy=0;fontSize=12;startSize=8;endSize=8;" edge="1" parent="1" source="agrJ_kMiK4IMYKjx3Z2o-177" target="agrJ_kMiK4IMYKjx3Z2o-178">
          <mxGeometry relative="1" as="geometry" />
        </mxCell>
        <mxCell id="agrJ_kMiK4IMYKjx3Z2o-189" style="edgeStyle=none;curved=1;rounded=0;orthogonalLoop=1;jettySize=auto;html=1;exitX=0.5;exitY=1;exitDx=0;exitDy=0;fontSize=12;startSize=8;endSize=8;" edge="1" parent="1" source="agrJ_kMiK4IMYKjx3Z2o-177" target="agrJ_kMiK4IMYKjx3Z2o-188">
          <mxGeometry relative="1" as="geometry" />
        </mxCell>
        <mxCell id="agrJ_kMiK4IMYKjx3Z2o-197" style="edgeStyle=none;curved=1;rounded=0;orthogonalLoop=1;jettySize=auto;html=1;exitX=1;exitY=0.25;exitDx=0;exitDy=0;entryX=0.5;entryY=0;entryDx=0;entryDy=0;fontSize=12;startSize=8;endSize=8;" edge="1" parent="1" source="agrJ_kMiK4IMYKjx3Z2o-177" target="agrJ_kMiK4IMYKjx3Z2o-178">
          <mxGeometry relative="1" as="geometry">
            <Array as="points">
              <mxPoint x="565" y="882" />
            </Array>
          </mxGeometry>
        </mxCell>
        <mxCell id="agrJ_kMiK4IMYKjx3Z2o-177" value="Оплачен" style="html=1;align=center;verticalAlign=top;rounded=1;absoluteArcSize=1;arcSize=10;dashed=0;whiteSpace=wrap;" vertex="1" parent="1">
          <mxGeometry x="221" y="922" width="56" height="30" as="geometry" />
        </mxCell>
        <mxCell id="agrJ_kMiK4IMYKjx3Z2o-211" style="edgeStyle=none;curved=1;rounded=0;orthogonalLoop=1;jettySize=auto;html=1;exitX=1;exitY=0.5;exitDx=0;exitDy=0;entryX=0;entryY=0.5;entryDx=0;entryDy=0;fontSize=12;startSize=8;endSize=8;" edge="1" parent="1" source="agrJ_kMiK4IMYKjx3Z2o-178" target="agrJ_kMiK4IMYKjx3Z2o-210">
          <mxGeometry relative="1" as="geometry" />
        </mxCell>
        <mxCell id="agrJ_kMiK4IMYKjx3Z2o-178" value="Отменен" style="html=1;align=center;verticalAlign=top;rounded=1;absoluteArcSize=1;arcSize=10;dashed=0;whiteSpace=wrap;" vertex="1" parent="1">
          <mxGeometry x="665" y="925" width="56" height="30" as="geometry" />
        </mxCell>
        <mxCell id="agrJ_kMiK4IMYKjx3Z2o-181" value="Клиент оформил заказ" style="text;html=1;align=center;verticalAlign=middle;resizable=0;points=[];autosize=1;strokeColor=none;fillColor=none;fontSize=12;" vertex="1" parent="1">
          <mxGeometry x="242.25" y="801" width="146" height="26" as="geometry" />
        </mxCell>
        <mxCell id="agrJ_kMiK4IMYKjx3Z2o-183" value="Оплата прошла успешно" style="text;html=1;align=center;verticalAlign=middle;resizable=0;points=[];autosize=1;strokeColor=none;fillColor=none;fontSize=12;" vertex="1" parent="1">
          <mxGeometry x="242.25" y="881" width="157" height="26" as="geometry" />
        </mxCell>
        <mxCell id="agrJ_kMiK4IMYKjx3Z2o-186" value="Клиент передумал" style="text;html=1;align=center;verticalAlign=middle;resizable=0;points=[];autosize=1;strokeColor=none;fillColor=none;fontSize=12;" vertex="1" parent="1">
          <mxGeometry x="433.5" y="914" width="122" height="26" as="geometry" />
        </mxCell>
        <mxCell id="agrJ_kMiK4IMYKjx3Z2o-187" value="Нет необходимых товаров, невозможно выполнить заказ" style="text;html=1;align=center;verticalAlign=middle;resizable=0;points=[];autosize=1;strokeColor=none;fillColor=none;fontSize=12;rotation=0;" vertex="1" parent="1">
          <mxGeometry x="319" y="1007" width="336" height="26" as="geometry" />
        </mxCell>
        <mxCell id="agrJ_kMiK4IMYKjx3Z2o-191" style="edgeStyle=none;curved=1;rounded=0;orthogonalLoop=1;jettySize=auto;html=1;exitX=1;exitY=0.5;exitDx=0;exitDy=0;entryX=0.5;entryY=1;entryDx=0;entryDy=0;fontSize=12;startSize=8;endSize=8;" edge="1" parent="1" source="agrJ_kMiK4IMYKjx3Z2o-188" target="agrJ_kMiK4IMYKjx3Z2o-178">
          <mxGeometry relative="1" as="geometry">
            <Array as="points">
              <mxPoint x="573" y="1014" />
            </Array>
          </mxGeometry>
        </mxCell>
        <mxCell id="agrJ_kMiK4IMYKjx3Z2o-193" style="edgeStyle=none;curved=1;rounded=0;orthogonalLoop=1;jettySize=auto;html=1;exitX=0.5;exitY=1;exitDx=0;exitDy=0;fontSize=12;startSize=8;endSize=8;" edge="1" parent="1" source="agrJ_kMiK4IMYKjx3Z2o-188" target="agrJ_kMiK4IMYKjx3Z2o-192">
          <mxGeometry relative="1" as="geometry" />
        </mxCell>
        <mxCell id="agrJ_kMiK4IMYKjx3Z2o-200" style="edgeStyle=none;curved=1;rounded=0;orthogonalLoop=1;jettySize=auto;html=1;exitX=1;exitY=0.5;exitDx=0;exitDy=0;entryX=0.75;entryY=1;entryDx=0;entryDy=0;fontSize=12;startSize=8;endSize=8;" edge="1" parent="1" source="agrJ_kMiK4IMYKjx3Z2o-188" target="agrJ_kMiK4IMYKjx3Z2o-178">
          <mxGeometry relative="1" as="geometry">
            <Array as="points">
              <mxPoint x="676" y="1124" />
            </Array>
          </mxGeometry>
        </mxCell>
        <mxCell id="agrJ_kMiK4IMYKjx3Z2o-188" value="В сборке" style="html=1;align=center;verticalAlign=top;rounded=1;absoluteArcSize=1;arcSize=10;dashed=0;whiteSpace=wrap;" vertex="1" parent="1">
          <mxGeometry x="221" y="999" width="56" height="30" as="geometry" />
        </mxCell>
        <mxCell id="agrJ_kMiK4IMYKjx3Z2o-190" value="Информация о заказе передана на склад" style="text;html=1;align=center;verticalAlign=middle;resizable=0;points=[];autosize=1;strokeColor=none;fillColor=none;fontSize=12;" vertex="1" parent="1">
          <mxGeometry x="242.25" y="960" width="250" height="26" as="geometry" />
        </mxCell>
        <mxCell id="agrJ_kMiK4IMYKjx3Z2o-196" style="edgeStyle=none;curved=1;rounded=0;orthogonalLoop=1;jettySize=auto;html=1;exitX=0.5;exitY=1;exitDx=0;exitDy=0;entryX=0.5;entryY=0;entryDx=0;entryDy=0;fontSize=12;startSize=8;endSize=8;" edge="1" parent="1" source="agrJ_kMiK4IMYKjx3Z2o-192" target="agrJ_kMiK4IMYKjx3Z2o-195">
          <mxGeometry relative="1" as="geometry" />
        </mxCell>
        <mxCell id="agrJ_kMiK4IMYKjx3Z2o-202" style="edgeStyle=none;curved=1;rounded=0;orthogonalLoop=1;jettySize=auto;html=1;exitX=1;exitY=0.5;exitDx=0;exitDy=0;entryX=1;entryY=1;entryDx=0;entryDy=0;fontSize=12;startSize=8;endSize=8;" edge="1" parent="1" source="agrJ_kMiK4IMYKjx3Z2o-192" target="agrJ_kMiK4IMYKjx3Z2o-178">
          <mxGeometry relative="1" as="geometry">
            <Array as="points">
              <mxPoint x="757" y="1126" />
            </Array>
          </mxGeometry>
        </mxCell>
        <mxCell id="agrJ_kMiK4IMYKjx3Z2o-192" value="Готов" style="html=1;align=center;verticalAlign=top;rounded=1;absoluteArcSize=1;arcSize=10;dashed=0;whiteSpace=wrap;" vertex="1" parent="1">
          <mxGeometry x="228" y="1085" width="42" height="30" as="geometry" />
        </mxCell>
        <mxCell id="agrJ_kMiK4IMYKjx3Z2o-194" value="Заказ собран" style="text;html=1;align=center;verticalAlign=middle;resizable=0;points=[];autosize=1;strokeColor=none;fillColor=none;fontSize=12;" vertex="1" parent="1">
          <mxGeometry x="242.25" y="1044" width="92" height="26" as="geometry" />
        </mxCell>
        <mxCell id="agrJ_kMiK4IMYKjx3Z2o-208" style="edgeStyle=none;curved=1;rounded=0;orthogonalLoop=1;jettySize=auto;html=1;exitX=1;exitY=0.5;exitDx=0;exitDy=0;entryX=1;entryY=0.75;entryDx=0;entryDy=0;fontSize=12;startSize=8;endSize=8;" edge="1" parent="1" source="agrJ_kMiK4IMYKjx3Z2o-195" target="agrJ_kMiK4IMYKjx3Z2o-178">
          <mxGeometry relative="1" as="geometry">
            <Array as="points">
              <mxPoint x="894" y="1211" />
            </Array>
          </mxGeometry>
        </mxCell>
        <mxCell id="agrJ_kMiK4IMYKjx3Z2o-215" style="edgeStyle=none;curved=1;rounded=0;orthogonalLoop=1;jettySize=auto;html=1;exitX=0.5;exitY=1;exitDx=0;exitDy=0;entryX=0.5;entryY=0;entryDx=0;entryDy=0;fontSize=12;startSize=8;endSize=8;" edge="1" parent="1" source="agrJ_kMiK4IMYKjx3Z2o-195" target="agrJ_kMiK4IMYKjx3Z2o-213">
          <mxGeometry relative="1" as="geometry" />
        </mxCell>
        <mxCell id="agrJ_kMiK4IMYKjx3Z2o-217" style="edgeStyle=none;curved=1;rounded=0;orthogonalLoop=1;jettySize=auto;html=1;exitX=1;exitY=0.5;exitDx=0;exitDy=0;entryX=0.5;entryY=0;entryDx=0;entryDy=0;fontSize=12;startSize=8;endSize=8;" edge="1" parent="1" source="agrJ_kMiK4IMYKjx3Z2o-195" target="agrJ_kMiK4IMYKjx3Z2o-214">
          <mxGeometry relative="1" as="geometry">
            <Array as="points">
              <mxPoint x="414" y="1175" />
            </Array>
          </mxGeometry>
        </mxCell>
        <mxCell id="agrJ_kMiK4IMYKjx3Z2o-195" value="В доставке" style="html=1;align=center;verticalAlign=top;rounded=1;absoluteArcSize=1;arcSize=10;dashed=0;whiteSpace=wrap;" vertex="1" parent="1">
          <mxGeometry x="210.5" y="1153" width="77" height="30" as="geometry" />
        </mxCell>
        <mxCell id="agrJ_kMiK4IMYKjx3Z2o-198" value="Клиент нарушил правила сервиса" style="text;html=1;align=center;verticalAlign=middle;resizable=0;points=[];autosize=1;strokeColor=none;fillColor=none;fontSize=12;" vertex="1" parent="1">
          <mxGeometry x="433.5" y="881" width="208" height="26" as="geometry" />
        </mxCell>
        <mxCell id="agrJ_kMiK4IMYKjx3Z2o-199" value="Заказ передан курьеру" style="text;html=1;align=center;verticalAlign=middle;resizable=0;points=[];autosize=1;strokeColor=none;fillColor=none;fontSize=12;" vertex="1" parent="1">
          <mxGeometry x="245" y="1119" width="146" height="26" as="geometry" />
        </mxCell>
        <mxCell id="agrJ_kMiK4IMYKjx3Z2o-201" value="Клиент передумал" style="text;html=1;align=center;verticalAlign=middle;resizable=0;points=[];autosize=1;strokeColor=none;fillColor=none;fontSize=12;rotation=0;" vertex="1" parent="1">
          <mxGeometry x="464" y="1056" width="122" height="26" as="geometry" />
        </mxCell>
        <mxCell id="agrJ_kMiK4IMYKjx3Z2o-203" value="Клиент передумал" style="text;html=1;align=center;verticalAlign=middle;resizable=0;points=[];autosize=1;strokeColor=none;fillColor=none;fontSize=12;rotation=0;" vertex="1" parent="1">
          <mxGeometry x="514" y="1093" width="122" height="26" as="geometry" />
        </mxCell>
        <mxCell id="agrJ_kMiK4IMYKjx3Z2o-206" value="Банк не одобрил платеж" style="text;html=1;align=center;verticalAlign=middle;resizable=0;points=[];autosize=1;strokeColor=none;fillColor=none;fontSize=12;" vertex="1" parent="1">
          <mxGeometry x="500" y="818" width="155" height="26" as="geometry" />
        </mxCell>
        <mxCell id="agrJ_kMiK4IMYKjx3Z2o-209" value="Клиент передумал" style="text;html=1;align=center;verticalAlign=middle;resizable=0;points=[];autosize=1;strokeColor=none;fillColor=none;fontSize=12;rotation=0;" vertex="1" parent="1">
          <mxGeometry x="441" y="1145" width="122" height="26" as="geometry" />
        </mxCell>
        <mxCell id="agrJ_kMiK4IMYKjx3Z2o-210" value="" style="ellipse;html=1;shape=endState;fillColor=strokeColor;" vertex="1" parent="1">
          <mxGeometry x="967" y="922" width="30" height="30" as="geometry" />
        </mxCell>
        <mxCell id="agrJ_kMiK4IMYKjx3Z2o-212" value="Процесс завершен" style="text;html=1;align=center;verticalAlign=middle;resizable=0;points=[];autosize=1;strokeColor=none;fillColor=none;fontSize=12;" vertex="1" parent="1">
          <mxGeometry x="793" y="914" width="123" height="26" as="geometry" />
        </mxCell>
        <mxCell id="agrJ_kMiK4IMYKjx3Z2o-235" style="edgeStyle=none;curved=1;rounded=0;orthogonalLoop=1;jettySize=auto;html=1;exitX=0.5;exitY=1;exitDx=0;exitDy=0;entryX=0.5;entryY=0;entryDx=0;entryDy=0;fontSize=12;startSize=8;endSize=8;" edge="1" parent="1" source="agrJ_kMiK4IMYKjx3Z2o-213" target="agrJ_kMiK4IMYKjx3Z2o-234">
          <mxGeometry relative="1" as="geometry" />
        </mxCell>
        <mxCell id="agrJ_kMiK4IMYKjx3Z2o-213" value="Доставлен" style="html=1;align=center;verticalAlign=top;rounded=1;absoluteArcSize=1;arcSize=10;dashed=0;whiteSpace=wrap;" vertex="1" parent="1">
          <mxGeometry x="210.5" y="1222" width="77" height="30" as="geometry" />
        </mxCell>
        <mxCell id="agrJ_kMiK4IMYKjx3Z2o-221" style="edgeStyle=none;curved=1;rounded=0;orthogonalLoop=1;jettySize=auto;html=1;exitX=1;exitY=0.5;exitDx=0;exitDy=0;entryX=0;entryY=1;entryDx=0;entryDy=0;fontSize=12;startSize=8;endSize=8;" edge="1" parent="1" source="agrJ_kMiK4IMYKjx3Z2o-214" target="agrJ_kMiK4IMYKjx3Z2o-220">
          <mxGeometry relative="1" as="geometry">
            <Array as="points">
              <mxPoint x="620" y="1241" />
            </Array>
          </mxGeometry>
        </mxCell>
        <mxCell id="agrJ_kMiK4IMYKjx3Z2o-214" value="Возвращен" style="html=1;align=center;verticalAlign=top;rounded=1;absoluteArcSize=1;arcSize=10;dashed=0;whiteSpace=wrap;" vertex="1" parent="1">
          <mxGeometry x="417" y="1222" width="77" height="30" as="geometry" />
        </mxCell>
        <mxCell id="agrJ_kMiK4IMYKjx3Z2o-216" value="Клиент получил заказ" style="text;html=1;align=center;verticalAlign=middle;resizable=0;points=[];autosize=1;strokeColor=none;fillColor=none;fontSize=12;" vertex="1" parent="1">
          <mxGeometry x="245" y="1186" width="140" height="26" as="geometry" />
        </mxCell>
        <mxCell id="agrJ_kMiK4IMYKjx3Z2o-218" value="Клиент отказался от заказа" style="text;html=1;align=center;verticalAlign=middle;resizable=0;points=[];autosize=1;strokeColor=none;fillColor=none;fontSize=12;" vertex="1" parent="1">
          <mxGeometry x="424" y="1181" width="171" height="26" as="geometry" />
        </mxCell>
        <mxCell id="agrJ_kMiK4IMYKjx3Z2o-224" style="edgeStyle=none;curved=1;rounded=0;orthogonalLoop=1;jettySize=auto;html=1;exitX=1;exitY=0.5;exitDx=0;exitDy=0;entryX=0;entryY=1;entryDx=0;entryDy=0;fontSize=12;startSize=8;endSize=8;" edge="1" parent="1" source="agrJ_kMiK4IMYKjx3Z2o-220" target="agrJ_kMiK4IMYKjx3Z2o-210">
          <mxGeometry relative="1" as="geometry">
            <Array as="points">
              <mxPoint x="913" y="1110" />
            </Array>
          </mxGeometry>
        </mxCell>
        <mxCell id="agrJ_kMiK4IMYKjx3Z2o-220" value="Завершен" style="html=1;align=center;verticalAlign=top;rounded=1;absoluteArcSize=1;arcSize=10;dashed=0;whiteSpace=wrap;" vertex="1" parent="1">
          <mxGeometry x="667" y="1192" width="77" height="30" as="geometry" />
        </mxCell>
        <mxCell id="agrJ_kMiK4IMYKjx3Z2o-222" value="Заказ завершен возвратом" style="text;html=1;align=center;verticalAlign=middle;resizable=0;points=[];autosize=1;strokeColor=none;fillColor=none;fontSize=12;" vertex="1" parent="1">
          <mxGeometry x="511" y="1235" width="169" height="26" as="geometry" />
        </mxCell>
        <mxCell id="agrJ_kMiK4IMYKjx3Z2o-225" value="Процесс завершен" style="text;html=1;align=center;verticalAlign=middle;resizable=0;points=[];autosize=1;strokeColor=none;fillColor=none;fontSize=12;rotation=-45;" vertex="1" parent="1">
          <mxGeometry x="796" y="1077" width="123" height="26" as="geometry" />
        </mxCell>
        <mxCell id="agrJ_kMiK4IMYKjx3Z2o-238" style="edgeStyle=none;curved=1;rounded=0;orthogonalLoop=1;jettySize=auto;html=1;exitX=0.5;exitY=1;exitDx=0;exitDy=0;entryX=0.5;entryY=0;entryDx=0;entryDy=0;fontSize=12;startSize=8;endSize=8;" edge="1" parent="1" source="agrJ_kMiK4IMYKjx3Z2o-226" target="agrJ_kMiK4IMYKjx3Z2o-228">
          <mxGeometry relative="1" as="geometry" />
        </mxCell>
        <mxCell id="agrJ_kMiK4IMYKjx3Z2o-240" style="edgeStyle=none;curved=1;rounded=0;orthogonalLoop=1;jettySize=auto;html=1;exitX=1;exitY=0.5;exitDx=0;exitDy=0;entryX=0.5;entryY=0;entryDx=0;entryDy=0;fontSize=12;startSize=8;endSize=8;" edge="1" parent="1" source="agrJ_kMiK4IMYKjx3Z2o-226" target="agrJ_kMiK4IMYKjx3Z2o-229">
          <mxGeometry relative="1" as="geometry">
            <Array as="points">
              <mxPoint x="456" y="1408" />
            </Array>
          </mxGeometry>
        </mxCell>
        <mxCell id="agrJ_kMiK4IMYKjx3Z2o-226" value="Ждет оценки" style="html=1;align=center;verticalAlign=top;rounded=1;absoluteArcSize=1;arcSize=10;dashed=0;whiteSpace=wrap;" vertex="1" parent="1">
          <mxGeometry x="210.5" y="1404" width="77" height="30" as="geometry" />
        </mxCell>
        <mxCell id="agrJ_kMiK4IMYKjx3Z2o-242" style="edgeStyle=none;curved=1;rounded=0;orthogonalLoop=1;jettySize=auto;html=1;exitX=0.5;exitY=1;exitDx=0;exitDy=0;entryX=0.5;entryY=1;entryDx=0;entryDy=0;fontSize=12;startSize=8;endSize=8;" edge="1" parent="1" source="agrJ_kMiK4IMYKjx3Z2o-228" target="agrJ_kMiK4IMYKjx3Z2o-220">
          <mxGeometry relative="1" as="geometry">
            <Array as="points">
              <mxPoint x="812" y="1700" />
            </Array>
          </mxGeometry>
        </mxCell>
        <mxCell id="agrJ_kMiK4IMYKjx3Z2o-228" value="Оценен" style="html=1;align=center;verticalAlign=top;rounded=1;absoluteArcSize=1;arcSize=10;dashed=0;whiteSpace=wrap;" vertex="1" parent="1">
          <mxGeometry x="210.5" y="1476" width="77" height="30" as="geometry" />
        </mxCell>
        <mxCell id="agrJ_kMiK4IMYKjx3Z2o-243" style="edgeStyle=none;curved=1;rounded=0;orthogonalLoop=1;jettySize=auto;html=1;exitX=0.5;exitY=1;exitDx=0;exitDy=0;entryX=0.5;entryY=1;entryDx=0;entryDy=0;fontSize=12;startSize=8;endSize=8;" edge="1" parent="1" source="agrJ_kMiK4IMYKjx3Z2o-229" target="agrJ_kMiK4IMYKjx3Z2o-220">
          <mxGeometry relative="1" as="geometry">
            <Array as="points">
              <mxPoint x="689" y="1592" />
            </Array>
          </mxGeometry>
        </mxCell>
        <mxCell id="agrJ_kMiK4IMYKjx3Z2o-229" value="Без оценки" style="html=1;align=center;verticalAlign=top;rounded=1;absoluteArcSize=1;arcSize=10;dashed=0;whiteSpace=wrap;" vertex="1" parent="1">
          <mxGeometry x="437" y="1476" width="77" height="30" as="geometry" />
        </mxCell>
        <mxCell id="agrJ_kMiK4IMYKjx3Z2o-236" style="edgeStyle=none;curved=1;rounded=0;orthogonalLoop=1;jettySize=auto;html=1;exitX=0.5;exitY=1;exitDx=0;exitDy=0;entryX=0.5;entryY=0;entryDx=0;entryDy=0;fontSize=12;startSize=8;endSize=8;" edge="1" parent="1" source="agrJ_kMiK4IMYKjx3Z2o-234" target="agrJ_kMiK4IMYKjx3Z2o-226">
          <mxGeometry relative="1" as="geometry" />
        </mxCell>
        <mxCell id="agrJ_kMiK4IMYKjx3Z2o-246" style="edgeStyle=none;curved=1;rounded=0;orthogonalLoop=1;jettySize=auto;html=1;exitX=1;exitY=0.5;exitDx=0;exitDy=0;entryX=0;entryY=0.5;entryDx=0;entryDy=0;fontSize=12;startSize=8;endSize=8;" edge="1" parent="1" source="agrJ_kMiK4IMYKjx3Z2o-234" target="agrJ_kMiK4IMYKjx3Z2o-245">
          <mxGeometry relative="1" as="geometry" />
        </mxCell>
        <mxCell id="agrJ_kMiK4IMYKjx3Z2o-234" value="Есть ли обращение в поддержку?" style="rhombus;" vertex="1" parent="1">
          <mxGeometry x="131" y="1299" width="236" height="69" as="geometry" />
        </mxCell>
        <mxCell id="agrJ_kMiK4IMYKjx3Z2o-237" value="Нет" style="text;html=1;align=center;verticalAlign=middle;resizable=0;points=[];autosize=1;strokeColor=none;fillColor=none;fontSize=12;" vertex="1" parent="1">
          <mxGeometry x="245" y="1371" width="38" height="26" as="geometry" />
        </mxCell>
        <mxCell id="agrJ_kMiK4IMYKjx3Z2o-239" value="Пользователь оценил заказ" style="text;html=1;align=center;verticalAlign=middle;resizable=0;points=[];autosize=1;strokeColor=none;fillColor=none;fontSize=12;" vertex="1" parent="1">
          <mxGeometry x="242.25" y="1442" width="173" height="26" as="geometry" />
        </mxCell>
        <mxCell id="agrJ_kMiK4IMYKjx3Z2o-241" value="Пользователь отказался от оценки заказа" style="text;html=1;align=center;verticalAlign=middle;resizable=0;points=[];autosize=1;strokeColor=none;fillColor=none;fontSize=12;" vertex="1" parent="1">
          <mxGeometry x="295" y="1397" width="252" height="26" as="geometry" />
        </mxCell>
        <mxCell id="agrJ_kMiK4IMYKjx3Z2o-254" style="edgeStyle=none;curved=1;rounded=0;orthogonalLoop=1;jettySize=auto;html=1;exitX=0.5;exitY=1;exitDx=0;exitDy=0;entryX=0.5;entryY=0;entryDx=0;entryDy=0;fontSize=12;startSize=8;endSize=8;" edge="1" parent="1" source="agrJ_kMiK4IMYKjx3Z2o-245" target="agrJ_kMiK4IMYKjx3Z2o-226">
          <mxGeometry relative="1" as="geometry">
            <Array as="points">
              <mxPoint x="406" y="1390" />
            </Array>
          </mxGeometry>
        </mxCell>
        <mxCell id="agrJ_kMiK4IMYKjx3Z2o-245" value="В споре" style="html=1;align=center;verticalAlign=top;rounded=1;absoluteArcSize=1;arcSize=10;dashed=0;whiteSpace=wrap;" vertex="1" parent="1">
          <mxGeometry x="422.5" y="1318.5" width="77" height="30" as="geometry" />
        </mxCell>
        <mxCell id="agrJ_kMiK4IMYKjx3Z2o-247" value="Да" style="text;html=1;align=center;verticalAlign=middle;resizable=0;points=[];autosize=1;strokeColor=none;fillColor=none;fontSize=12;" vertex="1" parent="1">
          <mxGeometry x="380.25" y="1313" width="33" height="26" as="geometry" />
        </mxCell>
        <mxCell id="agrJ_kMiK4IMYKjx3Z2o-251" value="Спор решен" style="text;html=1;align=center;verticalAlign=middle;resizable=0;points=[];autosize=1;strokeColor=none;fillColor=none;fontSize=12;" vertex="1" parent="1">
          <mxGeometry x="399.25" y="1371" width="86" height="26" as="geometry" />
        </mxCell>
      </root>
    </mxGraphModel>
  </diagram>
</mxfile>
